<?xml version="1.0" encoding="UTF-8" standalone="no"?>
<!DOCTYPE svg PUBLIC "-//W3C//DTD SVG 1.1//EN"
 "http://www.w3.org/Graphics/SVG/1.1/DTD/svg11.dtd">
<!-- Generated by graphviz version 2.26.3 (20100126.1600)
 -->
<!-- Title: controllers_diagram Pages: 1 -->
<svg width="370pt" height="415pt"
 viewBox="0.00 0.00 370.00 415.00" xmlns="http://www.w3.org/2000/svg" xmlns:xlink="http://www.w3.org/1999/xlink">
<g id="graph1" class="graph" transform="scale(1 1) rotate(0) translate(4 411)">
<title>controllers_diagram</title>
<polygon fill="white" stroke="white" points="-4,5 -4,-411 367,-411 367,5 -4,5"/>
<!-- _diagram_info -->
<g id="node1" class="node"><title>_diagram_info</title>
<text text-anchor="start" x="162" y="-216.3" font-family="Times,serif" font-size="13.00">Controllers diagram</text>
<text text-anchor="start" x="162" y="-202.3" font-family="Times,serif" font-size="13.00">Date: Feb 17 2011 &#45; 18:23</text>
<text text-anchor="start" x="162" y="-188.3" font-family="Times,serif" font-size="13.00">Migration version: 20110218003259</text>
<text text-anchor="start" x="162" y="-174.3" font-family="Times,serif" font-size="13.00">Generated by RailRoady 1.0.1</text>
<text text-anchor="start" x="162" y="-160.3" font-family="Times,serif" font-size="13.00">http://railroady.prestonlee.com</text>
</g>
<!-- AlbumsController -->
<g id="node2" class="node"><title>AlbumsController</title>
<polyline fill="none" stroke="black" points="13,-1.5 111,-1.5 "/>
<path fill="none" stroke="black" d="M111,-1.5C117,-1.5 123,-7.5 123,-13.5"/>
<polyline fill="none" stroke="black" points="123,-13.5 123,-172.5 "/>
<path fill="none" stroke="black" d="M123,-172.5C123,-178.5 117,-184.5 111,-184.5"/>
<polyline fill="none" stroke="black" points="111,-184.5 13,-184.5 "/>
<path fill="none" stroke="black" d="M13,-184.5C7,-184.5 1,-178.5 1,-172.5"/>
<polyline fill="none" stroke="black" points="1,-172.5 1,-13.5 "/>
<path fill="none" stroke="black" d="M1,-13.5C1,-7.5 7,-1.5 13,-1.5"/>
<text text-anchor="middle" x="62" y="-167.9" font-family="Times,serif" font-size="14.00">AlbumsController</text>
<polyline fill="none" stroke="black" points="1,-161.5 123,-161.5 "/>
<text text-anchor="start" x="9" y="-144.9" font-family="Times,serif" font-size="14.00">create</text>
<text text-anchor="start" x="9" y="-129.9" font-family="Times,serif" font-size="14.00">destroy</text>
<text text-anchor="start" x="9" y="-114.9" font-family="Times,serif" font-size="14.00">edit</text>
<text text-anchor="start" x="9" y="-99.9" font-family="Times,serif" font-size="14.00">index</text>
<text text-anchor="start" x="9" y="-84.9" font-family="Times,serif" font-size="14.00">new</text>
<text text-anchor="start" x="9" y="-69.9" font-family="Times,serif" font-size="14.00">show</text>
<text text-anchor="start" x="9" y="-54.9" font-family="Times,serif" font-size="14.00">update</text>
<polyline fill="none" stroke="black" points="1,-48.5 123,-48.5 "/>
<polyline fill="none" stroke="black" points="1,-24.5 123,-24.5 "/>
<text text-anchor="start" x="9" y="-7.9" font-family="Times,serif" font-size="14.00">_layout</text>
</g>
<!-- ApplicationController -->
<g id="node3" class="node"><title>ApplicationController</title>
<polyline fill="none" stroke="black" points="166,-18.5 344,-18.5 "/>
<path fill="none" stroke="black" d="M344,-18.5C350,-18.5 356,-24.5 356,-30.5"/>
<polyline fill="none" stroke="black" points="356,-30.5 356,-114.5 "/>
<path fill="none" stroke="black" d="M356,-114.5C356,-120.5 350,-126.5 344,-126.5"/>
<polyline fill="none" stroke="black" points="344,-126.5 166,-126.5 "/>
<path fill="none" stroke="black" d="M166,-126.5C160,-126.5 154,-120.5 154,-114.5"/>
<polyline fill="none" stroke="black" points="154,-114.5 154,-30.5 "/>
<path fill="none" stroke="black" d="M154,-30.5C154,-24.5 160,-18.5 166,-18.5"/>
<text text-anchor="middle" x="255" y="-109.9" font-family="Times,serif" font-size="14.00">ApplicationController</text>
<polyline fill="none" stroke="black" points="154,-103.5 356,-103.5 "/>
<text text-anchor="start" x="162" y="-86.9" font-family="Times,serif" font-size="14.00">_one_time_conditions_valid_8?</text>
<polyline fill="none" stroke="black" points="154,-80.5 356,-80.5 "/>
<polyline fill="none" stroke="black" points="154,-56.5 356,-56.5 "/>
<text text-anchor="start" x="162" y="-39.9" font-family="Times,serif" font-size="14.00">_layout</text>
<text text-anchor="start" x="162" y="-24.9" font-family="Times,serif" font-size="14.00">_run_process_action_callbacks</text>
</g>
<!-- SongsController -->
<g id="node4" class="node"><title>SongsController</title>
<polyline fill="none" stroke="black" points="13,-222.5 102,-222.5 "/>
<path fill="none" stroke="black" d="M102,-222.5C108,-222.5 114,-228.5 114,-234.5"/>
<polyline fill="none" stroke="black" points="114,-234.5 114,-393.5 "/>
<path fill="none" stroke="black" d="M114,-393.5C114,-399.5 108,-405.5 102,-405.5"/>
<polyline fill="none" stroke="black" points="102,-405.5 13,-405.5 "/>
<path fill="none" stroke="black" d="M13,-405.5C7,-405.5 1,-399.5 1,-393.5"/>
<polyline fill="none" stroke="black" points="1,-393.5 1,-234.5 "/>
<path fill="none" stroke="black" d="M1,-234.5C1,-228.5 7,-222.5 13,-222.5"/>
<text text-anchor="middle" x="57.5" y="-388.9" font-family="Times,serif" font-size="14.00">SongsController</text>
<polyline fill="none" stroke="black" points="1,-382.5 114,-382.5 "/>
<text text-anchor="start" x="9" y="-365.9" font-family="Times,serif" font-size="14.00">create</text>
<text text-anchor="start" x="9" y="-350.9" font-family="Times,serif" font-size="14.00">destroy</text>
<text text-anchor="start" x="9" y="-335.9" font-family="Times,serif" font-size="14.00">edit</text>
<text text-anchor="start" x="9" y="-320.9" font-family="Times,serif" font-size="14.00">index</text>
<text text-anchor="start" x="9" y="-305.9" font-family="Times,serif" font-size="14.00">new</text>
<text text-anchor="start" x="9" y="-290.9" font-family="Times,serif" font-size="14.00">show</text>
<text text-anchor="start" x="9" y="-275.9" font-family="Times,serif" font-size="14.00">update</text>
<polyline fill="none" stroke="black" points="1,-269.5 114,-269.5 "/>
<polyline fill="none" stroke="black" points="1,-245.5 114,-245.5 "/>
<text text-anchor="start" x="9" y="-228.9" font-family="Times,serif" font-size="14.00">_layout</text>
</g>
</g>
</svg>
