<?xml version="1.0" encoding="UTF-8" standalone="no"?>
<!DOCTYPE svg PUBLIC "-//W3C//DTD SVG 1.1//EN"
 "http://www.w3.org/Graphics/SVG/1.1/DTD/svg11.dtd">
<!-- Generated by graphviz version 2.26.3 (20100126.1600)
 -->
<!-- Title: models_diagram Pages: 1 -->
<svg width="366pt" height="244pt"
 viewBox="0.00 0.00 366.00 244.00" xmlns="http://www.w3.org/2000/svg" xmlns:xlink="http://www.w3.org/1999/xlink">
<g id="graph1" class="graph" transform="scale(1 1) rotate(0) translate(4 240)">
<title>models_diagram</title>
<polygon fill="white" stroke="white" points="-4,5 -4,-240 363,-240 363,5 -4,5"/>
<!-- _diagram_info -->
<g id="node1" class="node"><title>_diagram_info</title>
<text text-anchor="start" x="7.5" y="-205.3" font-family="Times,serif" font-size="13.00">Models diagram</text>
<text text-anchor="start" x="7.5" y="-191.3" font-family="Times,serif" font-size="13.00">Date: Feb 17 2011 &#45; 18:23</text>
<text text-anchor="start" x="7.5" y="-177.3" font-family="Times,serif" font-size="13.00">Migration version: 20110218003259</text>
<text text-anchor="start" x="7.5" y="-163.3" font-family="Times,serif" font-size="13.00">Generated by RailRoady 1.0.1</text>
<text text-anchor="start" x="7.5" y="-149.3" font-family="Times,serif" font-size="13.00">http://railroady.prestonlee.com</text>
</g>
<!-- Album -->
<g id="node2" class="node"><title>Album</title>
<polyline fill="none" stroke="black" points="235.5,-129 346.5,-129 "/>
<path fill="none" stroke="black" d="M346.5,-129C352.5,-129 358.5,-135 358.5,-141"/>
<polyline fill="none" stroke="black" points="358.5,-141 358.5,-223 "/>
<path fill="none" stroke="black" d="M358.5,-223C358.5,-229 352.5,-235 346.5,-235"/>
<polyline fill="none" stroke="black" points="346.5,-235 235.5,-235 "/>
<path fill="none" stroke="black" d="M235.5,-235C229.5,-235 223.5,-229 223.5,-223"/>
<polyline fill="none" stroke="black" points="223.5,-223 223.5,-141 "/>
<path fill="none" stroke="black" d="M223.5,-141C223.5,-135 229.5,-129 235.5,-129"/>
<text text-anchor="middle" x="291" y="-218.4" font-family="Times,serif" font-size="14.00">Album</text>
<polyline fill="none" stroke="black" points="223.5,-212 358.5,-212 "/>
<text text-anchor="start" x="231.5" y="-195.4" font-family="Times,serif" font-size="14.00">name :string</text>
<text text-anchor="start" x="231.5" y="-180.4" font-family="Times,serif" font-size="14.00">description :string</text>
<text text-anchor="start" x="231.5" y="-165.4" font-family="Times,serif" font-size="14.00">year :integer</text>
<text text-anchor="start" x="231.5" y="-150.4" font-family="Times,serif" font-size="14.00">created_at :datetime</text>
<text text-anchor="start" x="231.5" y="-135.4" font-family="Times,serif" font-size="14.00">updated_at :datetime</text>
</g>
<!-- Song -->
<g id="node3" class="node"><title>Song</title>
<polyline fill="none" stroke="black" points="235.5,-0.5 346.5,-0.5 "/>
<path fill="none" stroke="black" d="M346.5,-0.5C352.5,-0.5 358.5,-6.5 358.5,-12.5"/>
<polyline fill="none" stroke="black" points="358.5,-12.5 358.5,-79.5 "/>
<path fill="none" stroke="black" d="M358.5,-79.5C358.5,-85.5 352.5,-91.5 346.5,-91.5"/>
<polyline fill="none" stroke="black" points="346.5,-91.5 235.5,-91.5 "/>
<path fill="none" stroke="black" d="M235.5,-91.5C229.5,-91.5 223.5,-85.5 223.5,-79.5"/>
<polyline fill="none" stroke="black" points="223.5,-79.5 223.5,-12.5 "/>
<path fill="none" stroke="black" d="M223.5,-12.5C223.5,-6.5 229.5,-0.5 235.5,-0.5"/>
<text text-anchor="middle" x="291" y="-74.9" font-family="Times,serif" font-size="14.00">Song</text>
<polyline fill="none" stroke="black" points="223.5,-68.5 358.5,-68.5 "/>
<text text-anchor="start" x="231.5" y="-51.9" font-family="Times,serif" font-size="14.00">name :string</text>
<text text-anchor="start" x="231.5" y="-36.9" font-family="Times,serif" font-size="14.00">runtime :integer</text>
<text text-anchor="start" x="231.5" y="-21.9" font-family="Times,serif" font-size="14.00">created_at :datetime</text>
<text text-anchor="start" x="231.5" y="-6.9" font-family="Times,serif" font-size="14.00">updated_at :datetime</text>
</g>
<!-- Album&#45;&gt;Song -->
<g id="edge2" class="edge"><title>Album&#45;&gt;Song</title>
<path fill="none" stroke="black" d="M291,-120.553C291,-114.341 291,-108.054 291,-101.905"/>
<ellipse fill="none" stroke="black" cx="291" cy="-124.64" rx="4" ry="4"/>
<polygon fill="black" stroke="black" points="291,-101.721 295.5,-91.7205 291,-96.7206 291,-91.7206 291,-91.7206 291,-91.7206 291,-96.7206 286.5,-91.7206 291,-101.721 291,-101.721"/>
</g>
</g>
</svg>
