<?xml version="1.0" encoding="UTF-8" standalone="no"?>
<!DOCTYPE svg PUBLIC "-//W3C//DTD SVG 1.1//EN"
 "http://www.w3.org/Graphics/SVG/1.1/DTD/svg11.dtd">
<!-- Generated by graphviz version 2.26.3 (20100126.1600)
 -->
<!-- Title: models_diagram Pages: 1 -->
<svg width="306pt" height="158pt"
 viewBox="0.00 0.00 306.00 158.00" xmlns="http://www.w3.org/2000/svg" xmlns:xlink="http://www.w3.org/1999/xlink">
<g id="graph1" class="graph" transform="scale(1 1) rotate(0) translate(4 154)">
<title>models_diagram</title>
<polygon fill="white" stroke="white" points="-4,5 -4,-154 303,-154 303,5 -4,5"/>
<!-- _diagram_info -->
<g id="node1" class="node"><title>_diagram_info</title>
<text text-anchor="start" x="7.5" y="-134.3" font-family="Times,serif" font-size="13.00">Models diagram</text>
<text text-anchor="start" x="7.5" y="-120.3" font-family="Times,serif" font-size="13.00">Date: Feb 17 2011 &#45; 18:23</text>
<text text-anchor="start" x="7.5" y="-106.3" font-family="Times,serif" font-size="13.00">Migration version: 20110218003259</text>
<text text-anchor="start" x="7.5" y="-92.3" font-family="Times,serif" font-size="13.00">Generated by RailRoady 1.0.1</text>
<text text-anchor="start" x="7.5" y="-78.3" font-family="Times,serif" font-size="13.00">http://railroady.prestonlee.com</text>
</g>
<!-- Album -->
<g id="node2" class="node"><title>Album</title>
<ellipse fill="none" stroke="black" cx="261" cy="-111" rx="37.0467" ry="18"/>
<text text-anchor="middle" x="261" y="-105.9" font-family="Times,serif" font-size="14.00">Album</text>
</g>
<!-- Song -->
<g id="node3" class="node"><title>Song</title>
<ellipse fill="none" stroke="black" cx="261" cy="-18" rx="30.0465" ry="18"/>
<text text-anchor="middle" x="261" y="-12.9" font-family="Times,serif" font-size="14.00">Song</text>
</g>
<!-- Album&#45;&gt;Song -->
<g id="edge2" class="edge"><title>Album&#45;&gt;Song</title>
<path fill="none" stroke="black" d="M261,-84.4432C261,-72.4479 261,-58.268 261,-46.0949"/>
<ellipse fill="none" stroke="black" cx="261" cy="-88.6262" rx="4" ry="4"/>
<polygon fill="black" stroke="black" points="261,-46.0192 265.5,-36.0191 261,-41.0192 261,-36.0192 261,-36.0192 261,-36.0192 261,-41.0192 256.5,-36.0192 261,-46.0192 261,-46.0192"/>
</g>
</g>
</svg>
